<?xml version="1.0" encoding="utf-8"?>
<!-- Generator: Adobe Illustrator 22.1.0, SVG Export Plug-In . SVG Version: 6.00 Build 0)  -->
<svg version="1.1" id="Layer_1" xmlns="http://www.w3.org/2000/svg" xmlns:xlink="http://www.w3.org/1999/xlink" x="0px" y="0px"
	 viewBox="0 0 48 48" style="enable-background:new 0 0 48 48;" xml:space="preserve">
<style type="text/css">
	.st0{fill:#8EBC46;}
</style>
<g>
	<path class="st0" d="M47.7,14.3L38,4.6c-0.4-0.4-1-0.4-1.4,0L33.2,8c-0.5,0.5-1,0.8-1.6,1.1l0,0l-2.2-0.6c-2-0.5-4.1-0.4-6,0.3
		c-1.3,0.5-2.5,1.2-3.5,2.2c-0.5-0.2-1-0.3-1.4-0.4c-1.4-0.2-2.7-0.9-3.7-1.9l-3.4-3.4C11.2,5.1,11,5,10.7,5S10.2,5.1,10,5.3L0.3,15
		c-0.4,0.4-0.4,1,0,1.4l3.4,3.4c1,1,1.7,2.3,1.9,3.7c0.2,1.1,0.6,2.2,1.1,3.1L5.5,28c-1.2,1.5-1,3.7,0.5,4.9
		c0.6,0.5,1.4,0.8,2.2,0.8c0.1,0,0.2,0,0.4,0c0.1,0.9,0.5,1.8,1.3,2.4c0.6,0.5,1.4,0.8,2.2,0.8c0.1,0,0.2,0,0.4,0
		c0.1,0.9,0.5,1.8,1.3,2.4c0.6,0.5,1.4,0.8,2.2,0.8c0.1,0,0.2,0,0.4,0l0,0c0.1,0.9,0.5,1.7,1.3,2.3c0.6,0.5,1.4,0.8,2.2,0.8
		c0.8,0,1.6-0.3,2.2-0.8l0.4,0.4c0.7,0.7,1.7,1.1,2.6,1.1c0.8,0,1.6-0.3,2.3-0.9c0.6-0.6,1-1.3,1.1-2.1c0.2,0,0.4,0.1,0.6,0.1
		c0.9,0,1.8-0.4,2.4-1c0.4-0.4,0.7-0.8,0.8-1.3c0.6,0.4,1.3,0.6,2,0.6c0.9,0,1.8-0.3,2.4-1c0.7-0.7,1-1.6,1-2.5c0,0,0,0,0.1,0
		c0.8,0,1.6-0.3,2.3-0.9c0.7-0.6,1.1-1.5,1.1-2.5c0-0.9-0.3-1.9-1-2.5l-1-1l1.1-1.1c1.3-1.3,2.2-3,2.5-4.8c0.2-1.4,0.9-2.7,1.9-3.7
		l3.4-3.4C48.1,15.3,48.1,14.7,47.7,14.3z M7.3,31.4c-0.6-0.5-0.7-1.4-0.2-2l3-3.6c0.3-0.3,0.7-0.5,1.1-0.5c0.3,0,0.7,0.1,0.9,0.3
		c0.6,0.5,0.7,1.4,0.2,2l-3,3.6C8.9,31.8,7.9,31.9,7.3,31.4z M11.1,34.5c-0.6-0.5-0.7-1.4-0.2-2l3-3.6l0,0l1.6-1.9
		c0.3-0.3,0.7-0.5,1.1-0.5c0.3,0,0.7,0.1,0.9,0.3c0.3,0.2,0.5,0.6,0.5,1s-0.1,0.8-0.3,1.1l-0.5,0.6l0,0l-4,4.9
		C12.7,34.9,11.7,35,11.1,34.5z M14.9,37.7c-0.3-0.2-0.5-0.6-0.5-1s0.1-0.8,0.3-1.1l4-4.9c0.3-0.3,0.7-0.5,1.1-0.5
		c0.3,0,0.7,0.1,0.9,0.3c0.3,0.2,0.5,0.6,0.5,1s-0.1,0.8-0.3,1.1l-4,4.9C16.5,38,15.5,38.1,14.9,37.7z M18.7,40.8
		c-0.3-0.2-0.5-0.6-0.5-1s0.1-0.8,0.3-1.1l3-3.6c0.3-0.3,0.7-0.5,1.1-0.5c0.3,0,0.7,0.1,0.9,0.3c0.3,0.2,0.5,0.6,0.5,1
		s-0.1,0.8-0.3,1.1l-3,3.6C20.3,41.2,19.3,41.3,18.7,40.8z M25.7,41.4c-0.6,0.5-1.5,0.4-2.1-0.2l-0.4-0.4l1.8-2.3l0.8,0.8
		c0.3,0.3,0.4,0.7,0.4,1.1C26.2,40.7,26,41.1,25.7,41.4z M38.5,33.2c-0.6,0.5-1.5,0.4-2.1-0.2L26.1,22.8c-0.4-0.4-1-0.4-1.4,0
		s-0.4,1,0,1.4L35,34.5l0,0l0.1,0.1c0.6,0.6,0.6,1.5,0,2.1s-1.5,0.6-2.1,0l-3.9-3.9l-6.5-6.5c-0.4-0.4-1-0.4-1.4,0l0,0l0,0
		c-0.4,0.4-0.4,1,0,1.4l6.5,6.5l2.2,2.2c0.3,0.3,0.4,0.6,0.4,1s-0.2,0.8-0.4,1c-0.6,0.6-1.5,0.6-2.1,0L26,36.6
		c0.1-0.3,0.1-0.6,0.1-1c-0.1-0.9-0.5-1.7-1.3-2.3c-0.5-0.4-1-0.6-1.6-0.7c0.1-0.4,0.2-0.9,0.1-1.3c-0.1-0.9-0.5-1.7-1.3-2.3
		c-0.6-0.5-1.3-0.7-2-0.8c0-0.2,0-0.4,0-0.6c-0.1-0.9-0.5-1.7-1.3-2.3c-0.6-0.5-1.4-0.8-2.2-0.8c-0.8,0-1.6,0.3-2.2,0.8
		c-0.2-0.5-0.5-0.9-0.9-1.3c-0.6-0.5-1.4-0.8-2.2-0.8c-1,0-2,0.5-2.7,1.3L8.1,25c-0.3-0.6-0.4-1.2-0.5-1.8c-0.3-1.8-1.2-3.5-2.5-4.8
		l-2.7-2.7l8.3-8.3l2.7,2.7c1.3,1.3,3,2.2,4.8,2.5l0,0l-4,3.7c-0.6,0.5-0.9,1.3-0.9,2c0,0.8,0.3,1.5,0.8,2.1c0.9,1,2.3,1.2,3.5,0.6
		l4.7-2.4c0.7-0.3,1.4-0.5,2.2-0.3c0.7,0.1,1.3,0.4,1.8,0.9l12.4,12c0.3,0.3,0.4,0.7,0.4,1.1C39,32.6,38.8,33,38.5,33.2z M42.9,17.6
		c-1.3,1.3-2.2,3-2.5,4.8c-0.2,1.4-0.9,2.7-1.9,3.7l-1.1,1.1l-9.9-9.6c-0.8-0.8-1.7-1.2-2.8-1.4c-1.2-0.2-2.4,0-3.5,0.5l-4.7,2.4
		c-0.4,0.2-0.8,0.1-1.1-0.2c-0.2-0.2-0.3-0.4-0.2-0.7c0-0.3,0.1-0.5,0.3-0.6l5.8-5.3c0.8-0.8,1.8-1.4,2.9-1.8
		c1.6-0.6,3.2-0.6,4.8-0.2l2.2,0.6c0.1,0,0.1,0,0.2,0c0.3,0.2,0.6,0.2,0.9,0c0.9-0.4,1.7-1,2.4-1.7l2.7-2.7l8.3,8.3L42.9,17.6z"/>
</g>
</svg>
