<?xml version="1.0" encoding="utf-8"?>
<!-- Generator: Adobe Illustrator 22.1.0, SVG Export Plug-In . SVG Version: 6.00 Build 0)  -->
<svg version="1.1" id="Layer_1" xmlns="http://www.w3.org/2000/svg" xmlns:xlink="http://www.w3.org/1999/xlink" x="0px" y="0px"
	 viewBox="0 0 52 52" style="enable-background:new 0 0 52 52;" xml:space="preserve">
<style type="text/css">
	.st0{fill:#8EBC46;}
</style>
<g>
	<g>
		<path class="st0" d="M39.5,48.4h-27c-0.3,0-0.6-0.2-0.8-0.4c-0.2-0.3-0.2-0.6-0.1-0.9l2.1-6.2c0.1-0.4,0.5-0.7,0.9-0.7h22.9
			c0.4,0,0.8,0.3,0.9,0.7l2.1,6.2c0.1,0.3,0.1,0.6-0.1,0.9C40.1,48.3,39.8,48.4,39.5,48.4z M13.9,46.4h24.3l-1.4-4.2H15.3L13.9,46.4
			z"/>
	</g>
	<g>
		<path class="st0" d="M37.6,42.2H14.4c-0.6,0-1-0.4-1-1V25.1c0-6.7,5.4-12.1,12.1-12.1h0.9c6.7,0,12.1,5.4,12.1,12.1v16.1
			C38.6,41.8,38.1,42.2,37.6,42.2z M15.4,40.2h21.2V25.1c0-5.6-4.5-10.1-10.1-10.1h-0.9c-5.6,0-10.1,4.5-10.1,10.1V40.2z"/>
	</g>
	<g>
		<path class="st0" d="M26,9.7c-0.6,0-1-0.4-1-1V4.6c0-0.6,0.4-1,1-1s1,0.4,1,1v4.2C27,9.3,26.6,9.7,26,9.7z"/>
	</g>
	<g>
		<path class="st0" d="M41.5,16.2c-0.3,0-0.5-0.1-0.7-0.3c-0.4-0.4-0.4-1,0-1.4l2.9-2.9c0.4-0.4,1-0.4,1.4,0s0.4,1,0,1.4l-2.9,2.9
			C42,16.1,41.8,16.2,41.5,16.2z"/>
	</g>
	<g>
		<path class="st0" d="M49,31.7h-4.2c-0.6,0-1-0.4-1-1s0.4-1,1-1H49c0.6,0,1,0.4,1,1S49.6,31.7,49,31.7z"/>
	</g>
	<g>
		<path class="st0" d="M7.2,31.7H3c-0.6,0-1-0.4-1-1s0.4-1,1-1h4.2c0.6,0,1,0.4,1,1S7.7,31.7,7.2,31.7z"/>
	</g>
	<g>
		<path class="st0" d="M10.5,16.2c-0.3,0-0.5-0.1-0.7-0.3l-2.9-2.9c-0.4-0.4-0.4-1,0-1.4s1-0.4,1.4,0l2.9,2.9c0.4,0.4,0.4,1,0,1.4
			C11,16.1,10.7,16.2,10.5,16.2z"/>
	</g>
	<g>
		<path class="st0" d="M26,36.4c-0.4,0-0.8-0.2-1.1-0.5c-0.3-0.3-0.5-0.7-0.5-1.1c0-0.4,0.2-0.8,0.5-1.1c0.3-0.3,0.7-0.5,1.1-0.5
			s0.8,0.2,1.1,0.5c0.3,0.3,0.5,0.7,0.5,1.1c0,0.4-0.2,0.8-0.5,1.1C26.8,36.2,26.4,36.4,26,36.4z M24.5,20.8h3v2.8l-0.6,7.8h-1.7
			l-0.6-7.8V20.8z"/>
	</g>
</g>
</svg>
