<?xml version="1.0" encoding="utf-8"?>
<!-- Generator: Adobe Illustrator 22.1.0, SVG Export Plug-In . SVG Version: 6.00 Build 0)  -->
<svg version="1.1" id="Layer_1" xmlns="http://www.w3.org/2000/svg" xmlns:xlink="http://www.w3.org/1999/xlink" x="0px" y="0px"
	 viewBox="0 0 100 100" style="enable-background:new 0 0 100 100;" xml:space="preserve">
<style type="text/css">
	.st0{fill:#8EBC46;}
</style>
<g>
	<path class="st0" d="M74,30V9H10v66c0,1.7,0.4,3.2,1.1,4.6L6.8,87c-0.7,1.3-0.7,2.7,0,4s2,2,3.5,2h25.4c1.4,0,2.7-0.7,3.5-2
		s0.7-2.7,0-4L38,85h44.2l0,0c5.4-0.1,9.8-4.5,9.8-10V30H74z M37.4,90c-0.4,0.6-1,1-1.7,1H10.3c-0.7,0-1.4-0.4-1.7-1
		c-0.4-0.6-0.4-1.4,0-2l12.7-22c0.4-0.6,1-1,1.7-1s1.4,0.4,1.7,1l12.7,22C37.8,88.6,37.8,89.4,37.4,90z M36.9,83L26.5,65
		c-0.7-1.3-2-2-3.5-2s-2.7,0.7-3.5,2l-7.2,12.4C12.1,76.6,12,75.8,12,75V11h60v19v1v44c0,3.3,1.6,6.2,4,8H36.9z M90,75
		c0,4.4-3.6,8-8,8s-8-3.6-8-8V32h16V75z"/>
	<path class="st0" d="M66.5,37.5h-50c-0.6,0-1,0.4-1,1s0.4,1,1,1h50c0.6,0,1-0.4,1-1S67.1,37.5,66.5,37.5z"/>
	<path class="st0" d="M66.5,44.5h-50c-0.6,0-1,0.4-1,1s0.4,1,1,1h50c0.6,0,1-0.4,1-1S67.1,44.5,66.5,44.5z"/>
	<path class="st0" d="M66.5,51.5h-50c-0.6,0-1,0.4-1,1s0.4,1,1,1h50c0.6,0,1-0.4,1-1S67.1,51.5,66.5,51.5z"/>
	<path class="st0" d="M66.5,59.5h-50c-0.6,0-1,0.4-1,1s0.4,1,1,1h50c0.6,0,1-0.4,1-1S67.1,59.5,66.5,59.5z"/>
	<path class="st0" d="M17,33h49c0.6,0,1-0.4,1-1V17c0-0.6-0.4-1-1-1H17c-0.6,0-1,0.4-1,1v15C16,32.6,16.4,33,17,33z M18,18h47v13H18
		V18z"/>
	<path class="st0" d="M66,64H41c-0.6,0-1,0.4-1,1v15c0,0.6,0.4,1,1,1h25c0.6,0,1-0.4,1-1V65C67,64.4,66.6,64,66,64z M65,79H42V66h23
		V79z"/>
	<path class="st0" d="M23,85.2c-0.5,0-1,0.2-1.3,0.5c-0.4,0.4-0.5,0.8-0.5,1.3c0,0.6,0.2,1.1,0.6,1.4s0.8,0.5,1.3,0.5
		s0.9-0.2,1.3-0.5S25,87.6,25,87c0-0.5-0.2-1-0.6-1.3C24,85.4,23.5,85.2,23,85.2z"/>
	<path class="st0" d="M23.1,70c-0.6,0-1.1,0.2-1.4,0.6c-0.4,0.4-0.5,0.9-0.5,1.6c0,0.5,0,1.4,0.1,2.5l0.4,6c0.1,0.8,0.2,1.4,0.4,1.7
		c0.2,0.4,0.5,0.6,0.9,0.6s0.8-0.2,1-0.6s0.3-1,0.4-1.7l0.5-6.2c0.1-0.6,0.1-1.1,0.1-1.7c0-0.9-0.1-1.7-0.4-2.2
		C24.3,70.2,23.8,70,23.1,70z"/>
</g>
</svg>
