<?xml version="1.0" encoding="utf-8"?>
<!-- Generator: Adobe Illustrator 22.1.0, SVG Export Plug-In . SVG Version: 6.00 Build 0)  -->
<svg version="1.1" id="Layer_1" xmlns="http://www.w3.org/2000/svg" xmlns:xlink="http://www.w3.org/1999/xlink" x="0px" y="0px"
	 viewBox="0 0 64 64" style="enable-background:new 0 0 64 64;" xml:space="preserve">
<style type="text/css">
	.st0{fill:#8EBC46;}
</style>
<g>
	<path class="st0" d="M32,1C14.9,1,1,14.9,1,32c0,0.8,0,1.6,0.1,2.5C1,35,1,35.5,1,36v5v2v20h26v-0.4c1.6,0.3,3.3,0.4,5,0.4
		c17.1,0,31-13.9,31-31S49.1,1,32,1z M31,4v13c-4.3-0.1-7.7-0.6-10.3-1.4C24.1,9.8,28.7,5.8,31,4z M18.7,15c-4-1.5-5.9-3.3-6.5-4.1
		c4.5-4.2,10.2-7,16.6-7.7C26.1,5.4,21.9,9.4,18.7,15z M31,19v12h-5c-1.6-3.7-4.8-6.6-8.8-7.6c0.6-2.1,1.5-4.1,2.4-6
		C22.6,18.3,26.3,18.9,31,19z M27,41v-5c0-1-0.1-2-0.4-3H31v12c-1.4,0-2.7,0.1-4,0.2V43V41z M27,47.2c1.3-0.1,2.6-0.2,4-0.2v13
		c-1-0.8-2.4-2-4-3.5V47.2z M33,60V47c4.3,0.1,7.7,0.6,10.3,1.4C39.8,54.2,35.3,58.2,33,60z M45.3,49c4,1.5,5.9,3.3,6.5,4.1
		c-4.5,4.2-10.2,7-16.6,7.7C37.9,58.6,42.1,54.6,45.3,49z M33,45V33h15c-0.2,5.2-1.6,9.7-3.6,13.6C41.4,45.7,37.7,45.1,33,45z
		 M33,31V19c4.7-0.1,8.4-0.7,11.3-1.5c2,3.9,3.5,8.4,3.6,13.6H33z M33,17V4c2.3,1.8,6.9,5.8,10.3,11.7C40.7,16.4,37.3,16.9,33,17z
		 M35.2,3.2c6.4,0.7,12.2,3.5,16.6,7.7c-0.6,0.8-2.5,2.7-6.5,4.1C42.1,9.4,37.9,5.4,35.2,3.2z M10.7,12.3c0.9,1.1,3,3,7,4.5
		c-1,1.9-1.8,4-2.5,6.3C14.8,23,14.4,23,14,23c-4.5,0-8.5,2.3-10.8,5.8C3.9,22.5,6.6,16.8,10.7,12.3z M3,36c0-6.1,4.9-11,11-11
		s11,4.9,11,11v5h-2v-5c0-5-4-9-9-9s-9,4-9,9v5H3V36z M21,41H7v-5c0-3.9,3.1-7,7-7s7,3.1,7,7V41z M3,61v-2h2v-2H3v-2h2v-2H3v-2h2v-2
		H3v-2h2v-2H3v-2h4h14h4v2h-2v2h2v2h-2v2h2v2h-2v2h2v2h-2v2h2v2H3z M27,59.3c0.6,0.6,1.2,1.1,1.8,1.6c-0.6-0.1-1.2-0.2-1.8-0.3V59.3
		z M53.3,51.7c-0.9-1.1-3-3-7-4.5c2-4,3.5-8.8,3.7-14.2h7v-2h-7c-0.2-5.4-1.6-10.2-3.7-14.2c4-1.5,6.1-3.4,7-4.5
		c4.6,4.9,7.5,11.5,7.7,18.7h-2v2h2C60.7,40.2,57.8,46.7,53.3,51.7z"/>
	<path class="st0" d="M14,44c-2.8,0-5,2.2-5,5c0,1.6,0.8,3,2,4v6h6v-6c1.2-0.9,2-2.4,2-4C19,46.2,16.8,44,14,44z M15.5,51.6L15,51.9
		V57h-2v-5.1l-0.5-0.3C11.6,51,11,50.1,11,49c0-1.7,1.3-3,3-3s3,1.3,3,3C17,50.1,16.4,51,15.5,51.6z"/>
</g>
</svg>
