<?xml version="1.0" encoding="utf-8"?>
<!-- Generator: Adobe Illustrator 22.1.0, SVG Export Plug-In . SVG Version: 6.00 Build 0)  -->
<svg version="1.1" id="Layer_1" xmlns="http://www.w3.org/2000/svg" xmlns:xlink="http://www.w3.org/1999/xlink" x="0px" y="0px"
	 viewBox="0 0 70 70" style="enable-background:new 0 0 70 70;" xml:space="preserve">
<style type="text/css">
	.st0{fill:#8EBC46;}
</style>
<g>
	<g>
		<g>
			<path class="st0" d="M49.8,37.7c-0.2,0-0.4-0.1-0.6-0.2c-1.2-0.9-2.6-1.5-4-1.7c-0.5-0.1-0.9-0.5-0.9-1v-8.5h-8.7
				c-0.6,0-1-0.4-1-1v-8.7h-19c-0.6,0-1-0.4-1-1V11c0-0.6,0.4-1,1-1h34.2c0.6,0,1,0.4,1,1v25.7c0,0.4-0.2,0.7-0.6,0.9
				C50.1,37.6,50,37.7,49.8,37.7z M46.3,33.9c0.9,0.2,1.7,0.5,2.5,0.9V12H16.6v2.5h19c0.6,0,1,0.4,1,1v8.7h8.7c0.6,0,1,0.4,1,1V33.9
				z"/>
		</g>
	</g>
	<g>
		<g>
			<path class="st0" d="M49.8,55.5h-4.5c-0.6,0-1-0.4-1-1v-1.2c0-0.5,0.4-0.9,0.9-1c1.1-0.1,2.1-0.5,3-1c0.2-0.1,0.3-0.2,0.5-0.3
				c0,0,0,0,0.1,0l0.1,0c0.1-0.1,0.2-0.1,0.3-0.2c0,0,0.1-0.1,0.1-0.1c0.4-0.4,1-0.4,1.4,0c0.4,0.4,0.4,1,0,1.4
				c-0.1,0.1-0.2,0.1-0.2,0.2c0,0-0.1,0.1-0.2,0.1c0.4,0.1,0.7,0.5,0.7,1v1.2C50.8,55,50.4,55.5,49.8,55.5z M48.2,53.5h0.6v-0.2
				c0-0.1,0-0.1,0-0.2C48.6,53.3,48.4,53.4,48.2,53.5z"/>
		</g>
	</g>
	<g>
		<g>
			<path class="st0" d="M45.3,60H11c-0.6,0-1-0.4-1-1V15.5c0-0.6,0.4-1,1-1h24.5c0.6,0,1,0.4,1,1v8.7h8.7c0.6,0,1,0.4,1,1v9.5
				c0,0.3-0.1,0.6-0.3,0.8c-0.2,0.2-0.5,0.3-0.8,0.2c-2.6-0.4-5.2,0.5-7,2.4c-0.2,0.2-0.4,0.4-0.6,0.6c0,0,0,0,0,0
				c-1.4,1.7-2.1,4-1.8,6.3c0.2,1.9,1.1,3.5,2.4,4.9c0.6,0.6,1.2,1,1.9,1.4c1.6,0.9,3.3,1.2,5.1,0.9c0.3,0,0.6,0,0.8,0.2
				c0.2,0.2,0.3,0.5,0.3,0.8V59C46.3,59.6,45.8,60,45.3,60z M12,58h32.2v-3.7c-1.8,0.1-3.6-0.4-5.2-1.3c-0.9-0.5-1.7-1.1-2.4-1.8
				c-1.7-1.7-2.7-3.7-3-6.1c-0.3-2.8,0.5-5.7,2.3-7.8c0.2-0.3,0.4-0.5,0.7-0.8c2-2,4.7-3.1,7.6-3v-7.4h-8.7c-0.6,0-1-0.4-1-1v-8.7
				H12V58z M36.8,38.1L36.8,38.1L36.8,38.1z"/>
		</g>
	</g>
	<g>
		<g>
			<path class="st0" d="M45.3,26.3h-9.7c-0.6,0-1-0.4-1-1v-9.7c0-0.4,0.2-0.8,0.6-0.9c0.4-0.2,0.8-0.1,1.1,0.2l9.7,9.7
				c0.3,0.3,0.4,0.7,0.2,1.1C46.1,26,45.7,26.3,45.3,26.3z M36.5,24.3h6.3l-6.3-6.3V24.3z"/>
		</g>
	</g>
	<g>
		<g>
			<path class="st0" d="M39.5,53.2H15c-0.6,0-1-0.4-1-1s0.4-1,1-1h24.5c0.6,0,1,0.4,1,1S40.1,53.2,39.5,53.2z"/>
		</g>
	</g>
	<g>
		<g>
			<path class="st0" d="M34.7,46.1H15c-0.6,0-1-0.4-1-1s0.4-1,1-1h19.7c0.6,0,1,0.4,1,1S35.3,46.1,34.7,46.1z"/>
		</g>
	</g>
	<g>
		<g>
			<path class="st0" d="M36.8,39.1H15c-0.6,0-1-0.4-1-1s0.4-1,1-1h21.7c0.6,0,1,0.4,1,1S37.3,39.1,36.8,39.1z"/>
		</g>
	</g>
	<g>
		<g>
			<path class="st0" d="M40.8,32H15c-0.6,0-1-0.4-1-1s0.4-1,1-1h25.7c0.6,0,1,0.4,1,1S41.3,32,40.8,32z"/>
		</g>
	</g>
	<g>
		<g>
			<path class="st0" d="M31.3,24.6H15c-0.6,0-1-0.4-1-1s0.4-1,1-1h16.2c0.6,0,1,0.4,1,1S31.8,24.6,31.3,24.6z"/>
		</g>
	</g>
	<g>
		<g>
			<path class="st0" d="M56.5,60c0,0-0.1,0-0.1,0c-0.9,0-1.7-0.4-2.4-1l-6.1-6.1c-0.2-0.2-0.3-0.5-0.3-0.8c0-0.3,0.2-0.6,0.5-0.7
				c0.2-0.1,0.3-0.2,0.5-0.3c0,0,0,0,0.1,0l0.1,0c0.1-0.1,0.2-0.1,0.3-0.2c0,0,0.1-0.1,0.1-0.1c0,0,0,0,0.1-0.1
				c0.2-0.2,0.5-0.4,0.7-0.6c0.3-0.3,0.5-0.5,0.7-0.9c0.1-0.1,0.2-0.3,0.3-0.4c0,0,0,0,0-0.1c0.1-0.2,0.2-0.3,0.3-0.5
				c0.2-0.3,0.4-0.5,0.7-0.5c0.3,0,0.6,0.1,0.8,0.3l6.1,6.1c1.4,1.4,1.4,3.6,0,5l0,0C58.3,59.6,57.4,60,56.5,60z M58.2,58.2
				L58.2,58.2L58.2,58.2z M56.5,58c0.4,0,0.8-0.1,1.1-0.4c0.6-0.6,0.6-1.5,0-2.1l-5.2-5.2c0,0,0,0.1-0.1,0.1
				c-0.3,0.4-0.6,0.7-0.9,1.1c-0.3,0.3-0.6,0.6-0.9,0.8c-0.1,0.1-0.1,0.1-0.2,0.1c0,0,0,0-0.1,0.1l5.2,5.2
				C55.7,57.8,56.1,57.9,56.5,58z"/>
		</g>
	</g>
	<g>
		<g>
			<path class="st0" d="M44,54.4c-1.7,0-3.4-0.4-4.9-1.3c-0.9-0.5-1.7-1.1-2.4-1.8c-1.7-1.7-2.7-3.7-3-6.1c-0.3-2.8,0.5-5.7,2.3-7.8
				c0.2-0.3,0.4-0.5,0.7-0.8c2.3-2.3,5.5-3.4,8.7-2.9c1.8,0.3,3.6,1,5,2.1c0.3,0.2,0.6,0.5,0.9,0.8c3.3,3.3,4,8.4,1.7,12.4
				c0,0-0.1,0.1-0.1,0.1c-0.1,0.1-0.1,0.2-0.2,0.4c0,0,0,0.1-0.1,0.1c-0.1,0.2-0.3,0.4-0.4,0.5c-0.3,0.4-0.6,0.7-0.9,1.1
				c-0.3,0.3-0.6,0.6-0.9,0.8c-0.1,0.1-0.1,0.1-0.2,0.1c-0.1,0.1-0.3,0.2-0.4,0.3l-0.1,0.1c0,0-0.1,0.1-0.1,0.1
				c-0.2,0.1-0.3,0.2-0.5,0.3c-1.1,0.7-2.4,1.1-3.7,1.2C44.9,54.3,44.5,54.4,44,54.4z M44,35.6c-2.2,0-4.3,0.9-5.9,2.4
				c-0.2,0.2-0.4,0.4-0.6,0.6c-1.4,1.8-2.1,4.1-1.8,6.3c0.2,1.9,1.1,3.5,2.4,4.9c0.6,0.6,1.2,1,1.9,1.4c1.6,0.9,3.3,1.2,5.1,0.9
				c1.1-0.1,2.1-0.5,3-1c0.2-0.1,0.3-0.2,0.5-0.3c0,0,0,0,0.1,0l0.1,0c0.1-0.1,0.2-0.1,0.3-0.2c0,0,0.1-0.1,0.1-0.1c0,0,0,0,0.1-0.1
				c0.2-0.2,0.5-0.4,0.7-0.6c0.3-0.3,0.5-0.5,0.7-0.9c0.1-0.1,0.2-0.3,0.3-0.4c0,0,0,0,0-0.1c0.1-0.2,0.2-0.3,0.3-0.5
				c0,0,0.1-0.1,0.1-0.1c1.8-3.2,1.2-7.3-1.4-9.9c-0.2-0.2-0.5-0.5-0.7-0.6c-1.2-0.9-2.6-1.5-4.1-1.7C44.8,35.7,44.4,35.6,44,35.6z"
				/>
		</g>
	</g>
	<g>
		<g>
			<path class="st0" d="M51.8,50.1c-0.2,0-0.4-0.1-0.6-0.2c-0.5-0.3-0.6-0.9-0.3-1.4c0.1-0.2,0.2-0.3,0.3-0.5
				c0.2-0.3,0.4-0.5,0.7-0.5c0.3,0,0.6,0.1,0.8,0.3c0.3,0.3,0.4,0.8,0.2,1.2c-0.1,0.2-0.2,0.4-0.4,0.6C52.5,50,52.2,50.1,51.8,50.1z
				"/>
		</g>
	</g>
</g>
</svg>
