<?xml version="1.0" standalone="no"?>
<!DOCTYPE svg PUBLIC "-//W3C//DTD SVG 20010904//EN"
 "http://www.w3.org/TR/2001/REC-SVG-20010904/DTD/svg10.dtd">
<svg version="1.0" xmlns="http://www.w3.org/2000/svg"
 width="943.000000pt" height="943.000000pt" viewBox="0 0 943.000000 943.000000"
 preserveAspectRatio="xMidYMid meet">
<metadata>
Created by potrace 1.11, written by Peter Selinger 2001-2013
</metadata>
<g transform="translate(0.000000,943.000000) scale(0.100000,-0.100000)"
fill="#000000" stroke="none">
<path d="M2665 9333 c-11 -2 -45 -14 -75 -25 -170 -66 -276 -201 -314 -398 -2
-14 -27 -119 -55 -235 -133 -560 -153 -646 -172 -725 -12 -47 -22 -92 -24
-100 -6 -25 -114 -476 -145 -605 -26 -106 -45 -189 -55 -235 -1 -8 -8 -35 -15
-60 -7 -25 -14 -56 -17 -70 -2 -14 -10 -50 -18 -80 -14 -53 -74 -299 -80 -330
-5 -25 -94 -397 -121 -510 -14 -58 -28 -113 -30 -122 -6 -28 -10 -44 -43 -178
-16 -69 -32 -136 -35 -150 -7 -31 -85 -358 -92 -385 -3 -11 -10 -38 -14 -60
-5 -22 -25 -106 -44 -187 -92 -382 -118 -489 -131 -548 -2 -8 -17 -73 -35
-145 -17 -71 -33 -137 -35 -145 -2 -8 -18 -76 -35 -150 -57 -237 -67 -280
-129 -540 -34 -140 -70 -293 -81 -340 -11 -47 -45 -188 -75 -315 -31 -126 -58
-239 -61 -250 -3 -18 -39 -168 -125 -525 -16 -69 -32 -136 -35 -150 -3 -14
-10 -43 -16 -65 -5 -22 -12 -47 -13 -55 -2 -8 -16 -64 -30 -125 -15 -60 -28
-117 -30 -125 -13 -58 -31 -134 -60 -255 -19 -77 -43 -180 -55 -230 -12 -49
-37 -155 -56 -234 -51 -209 -50 -268 3 -378 35 -73 100 -135 180 -175 l68 -33
500 -1 c549 -2 577 1 688 56 144 74 263 225 291 372 2 13 10 46 16 73 6 28 13
57 15 65 2 8 16 65 30 125 15 61 28 115 30 120 1 6 5 21 8 35 20 82 59 248 63
265 2 11 10 47 18 80 9 33 38 157 66 275 28 118 58 242 66 275 9 33 17 67 19
75 1 8 15 65 29 125 15 61 28 119 31 130 5 23 62 264 95 400 54 227 169 708
175 735 8 34 49 205 85 355 22 88 53 216 69 285 66 283 148 626 155 650 3 8
11 47 20 85 8 39 27 117 41 175 15 58 28 114 31 125 2 11 60 256 130 545 69
289 128 536 130 550 3 14 12 52 20 85 9 33 17 67 19 75 2 8 9 38 15 65 6 28
13 57 15 65 2 8 33 139 70 290 68 283 134 563 140 590 2 8 17 74 35 145 17 72
40 168 51 215 11 47 35 148 54 225 36 148 125 520 130 545 2 8 10 42 18 75 9
33 18 71 20 85 3 14 12 52 20 85 9 33 18 74 21 90 3 17 14 64 25 105 26 97 31
168 18 227 -11 50 -53 136 -84 173 -34 41 -108 88 -171 109 -60 21 -78 21
-580 20 -284 -1 -526 -4 -537 -6z"/>
<path d="M4351 8149 c-83 -25 -150 -96 -171 -179 -7 -31 -10 -242 -8 -680 3
-629 3 -635 25 -675 11 -22 34 -52 50 -67 22 -21 396 -248 408 -248 1 0 43
-24 92 -54 49 -29 109 -64 133 -78 25 -14 74 -42 110 -63 71 -41 79 -46 225
-130 55 -32 114 -66 130 -75 96 -55 919 -533 1015 -590 63 -37 232 -135 375
-217 143 -83 274 -159 292 -169 43 -26 211 -123 248 -144 77 -44 350 -203 353
-206 5 -3 -55 -41 -133 -84 -33 -18 -67 -39 -76 -46 -8 -8 -18 -14 -21 -14 -3
0 -126 -70 -274 -157 -148 -86 -282 -164 -299 -173 -16 -9 -239 -139 -495
-287 -256 -148 -523 -304 -595 -345 -71 -41 -256 -149 -410 -238 -154 -89
-295 -171 -312 -181 -59 -34 -96 -56 -223 -129 -69 -41 -190 -111 -270 -157
-175 -101 -227 -141 -274 -214 -74 -114 -71 -84 -71 -759 l0 -605 25 -49 c42
-82 126 -136 219 -141 69 -4 109 9 214 70 44 26 97 56 116 67 20 11 99 57 176
103 154 90 600 349 708 411 38 21 83 47 100 58 102 60 980 568 1022 591 28 15
57 34 66 41 8 8 18 14 21 14 3 0 153 86 334 191 181 105 345 200 364 211 19
11 88 51 152 89 64 38 119 69 123 69 3 0 18 8 33 19 23 16 352 207 992 577 69
40 148 93 176 117 57 51 120 164 131 237 4 25 7 338 7 695 0 510 -3 662 -13
705 -24 97 -70 179 -140 251 -63 66 -175 137 -504 322 -23 14 -275 160 -561
326 -285 165 -520 301 -522 301 -3 0 -17 8 -32 19 -23 16 -330 195 -461 269
-25 14 -68 38 -95 55 -73 43 -1224 711 -1326 769 -47 27 -94 55 -105 61 -43
27 -93 55 -140 82 -50 27 -175 100 -450 261 -204 119 -244 142 -285 161 -43
20 -124 26 -169 12z"/>
</g>
</svg>
